<mxfile host="65bd71144e">
    <diagram name="Page-1" id="x-SVL9wOXLL5PjXPPvi8">
        <mxGraphModel dx="1906" dy="517" grid="1" gridSize="10" guides="1" tooltips="1" connect="1" arrows="1" fold="1" page="1" pageScale="1" pageWidth="850" pageHeight="1100" background="#FFFFFF" math="0" shadow="1">
            <root>
                <mxCell id="0"/>
                <mxCell id="1" parent="0"/>
                <mxCell id="JUMyYvWln3PgIU_vPIIk-1" value="film" style="swimlane;fontStyle=0;childLayout=stackLayout;horizontal=1;startSize=30;horizontalStack=0;resizeParent=1;resizeParentMax=0;resizeLast=0;collapsible=1;marginBottom=0;whiteSpace=wrap;html=1;" parent="1" vertex="1">
                    <mxGeometry x="20" y="170" width="240" height="840" as="geometry"/>
                </mxCell>
                <mxCell id="JUMyYvWln3PgIU_vPIIk-2" value="&lt;div&gt;film_id SERIAL&lt;/div&gt;" style="text;strokeColor=#6c8ebf;fillColor=#dae8fc;align=left;verticalAlign=middle;spacingLeft=4;spacingRight=4;overflow=hidden;points=[[0,0.5],[1,0.5]];portConstraint=eastwest;rotatable=0;whiteSpace=wrap;html=1;fontColor=#000000;" parent="JUMyYvWln3PgIU_vPIIk-1" vertex="1">
                    <mxGeometry y="30" width="240" height="30" as="geometry"/>
                </mxCell>
                <mxCell id="JUMyYvWln3PgIU_vPIIk-48" value="starring" style="text;strokeColor=#9673a6;fillColor=#e1d5e7;align=left;verticalAlign=middle;spacingLeft=4;spacingRight=4;overflow=hidden;points=[[0,0.5],[1,0.5]];portConstraint=eastwest;rotatable=0;whiteSpace=wrap;html=1;fontColor=#000000;" parent="JUMyYvWln3PgIU_vPIIk-1" vertex="1">
                    <mxGeometry y="60" width="240" height="30" as="geometry"/>
                </mxCell>
                <mxCell id="JUMyYvWln3PgIU_vPIIk-47" value="duplicated" style="text;strokeColor=#9673a6;fillColor=#e1d5e7;align=left;verticalAlign=middle;spacingLeft=4;spacingRight=4;overflow=hidden;points=[[0,0.5],[1,0.5]];portConstraint=eastwest;rotatable=0;whiteSpace=wrap;html=1;fontColor=#000000;" parent="JUMyYvWln3PgIU_vPIIk-1" vertex="1">
                    <mxGeometry y="90" width="240" height="30" as="geometry"/>
                </mxCell>
                <mxCell id="JUMyYvWln3PgIU_vPIIk-10" value="subtitles&amp;nbsp;" style="text;strokeColor=#d6b656;fillColor=#fff2cc;align=left;verticalAlign=middle;spacingLeft=4;spacingRight=4;overflow=hidden;points=[[0,0.5],[1,0.5]];portConstraint=eastwest;rotatable=0;whiteSpace=wrap;html=1;fontColor=#000000;" parent="JUMyYvWln3PgIU_vPIIk-1" vertex="1">
                    <mxGeometry y="120" width="240" height="30" as="geometry"/>
                </mxCell>
                <mxCell id="JUMyYvWln3PgIU_vPIIk-3" value="audio" style="text;strokeColor=#d6b656;fillColor=#fff2cc;align=left;verticalAlign=middle;spacingLeft=4;spacingRight=4;overflow=hidden;points=[[0,0.5],[1,0.5]];portConstraint=eastwest;rotatable=0;whiteSpace=wrap;html=1;fontColor=#000000;" parent="JUMyYvWln3PgIU_vPIIk-1" vertex="1">
                    <mxGeometry y="150" width="240" height="30" as="geometry"/>
                </mxCell>
                <mxCell id="JUMyYvWln3PgIU_vPIIk-9" value="year YEAR" style="text;strokeColor=#996185;fillColor=#e6d0de;align=left;verticalAlign=middle;spacingLeft=4;spacingRight=4;overflow=hidden;points=[[0,0.5],[1,0.5]];portConstraint=eastwest;rotatable=0;whiteSpace=wrap;html=1;gradientColor=#d5739d;fontColor=#000000;" parent="JUMyYvWln3PgIU_vPIIk-1" vertex="1">
                    <mxGeometry y="180" width="240" height="30" as="geometry"/>
                </mxCell>
                <mxCell id="JUMyYvWln3PgIU_vPIIk-11" value="country" style="text;strokeColor=#10739e;fillColor=#b1ddf0;align=left;verticalAlign=middle;spacingLeft=4;spacingRight=4;overflow=hidden;points=[[0,0.5],[1,0.5]];portConstraint=eastwest;rotatable=0;whiteSpace=wrap;html=1;fontColor=#000000;" parent="JUMyYvWln3PgIU_vPIIk-1" vertex="1">
                    <mxGeometry y="210" width="240" height="30" as="geometry"/>
                </mxCell>
                <mxCell id="JUMyYvWln3PgIU_vPIIk-12" value="genre" style="text;strokeColor=#d79b00;fillColor=#ffe6cc;align=left;verticalAlign=middle;spacingLeft=4;spacingRight=4;overflow=hidden;points=[[0,0.5],[1,0.5]];portConstraint=eastwest;rotatable=0;whiteSpace=wrap;html=1;fontColor=#000000;" parent="JUMyYvWln3PgIU_vPIIk-1" vertex="1">
                    <mxGeometry y="240" width="240" height="30" as="geometry"/>
                </mxCell>
                <mxCell id="JUMyYvWln3PgIU_vPIIk-15" value="tagline TEXT" style="text;strokeColor=#82b366;fillColor=#d5e8d4;align=left;verticalAlign=middle;spacingLeft=4;spacingRight=4;overflow=hidden;points=[[0,0.5],[1,0.5]];portConstraint=eastwest;rotatable=0;whiteSpace=wrap;html=1;fontColor=#000000;" parent="JUMyYvWln3PgIU_vPIIk-1" vertex="1">
                    <mxGeometry y="270" width="240" height="30" as="geometry"/>
                </mxCell>
                <mxCell id="JUMyYvWln3PgIU_vPIIk-14" value="film_director" style="text;strokeColor=#b85450;fillColor=#f8cecc;align=left;verticalAlign=middle;spacingLeft=4;spacingRight=4;overflow=hidden;points=[[0,0.5],[1,0.5]];portConstraint=eastwest;rotatable=0;whiteSpace=wrap;html=1;fontColor=#000000;" parent="JUMyYvWln3PgIU_vPIIk-1" vertex="1">
                    <mxGeometry y="300" width="240" height="30" as="geometry"/>
                </mxCell>
                <mxCell id="JUMyYvWln3PgIU_vPIIk-16" value="screenwriter" style="text;strokeColor=#b85450;fillColor=#f8cecc;align=left;verticalAlign=middle;spacingLeft=4;spacingRight=4;overflow=hidden;points=[[0,0.5],[1,0.5]];portConstraint=eastwest;rotatable=0;whiteSpace=wrap;html=1;fontColor=#000000;" parent="JUMyYvWln3PgIU_vPIIk-1" vertex="1">
                    <mxGeometry y="330" width="240" height="30" as="geometry"/>
                </mxCell>
                <mxCell id="JUMyYvWln3PgIU_vPIIk-17" value="producer" style="text;strokeColor=#b85450;fillColor=#f8cecc;align=left;verticalAlign=middle;spacingLeft=4;spacingRight=4;overflow=hidden;points=[[0,0.5],[1,0.5]];portConstraint=eastwest;rotatable=0;whiteSpace=wrap;html=1;fontColor=#000000;" parent="JUMyYvWln3PgIU_vPIIk-1" vertex="1">
                    <mxGeometry y="360" width="240" height="30" as="geometry"/>
                </mxCell>
                <mxCell id="JUMyYvWln3PgIU_vPIIk-25" value="operator" style="text;strokeColor=#b85450;fillColor=#f8cecc;align=left;verticalAlign=middle;spacingLeft=4;spacingRight=4;overflow=hidden;points=[[0,0.5],[1,0.5]];portConstraint=eastwest;rotatable=0;whiteSpace=wrap;html=1;fontColor=#000000;" parent="JUMyYvWln3PgIU_vPIIk-1" vertex="1">
                    <mxGeometry y="390" width="240" height="30" as="geometry"/>
                </mxCell>
                <mxCell id="JUMyYvWln3PgIU_vPIIk-24" value="composer" style="text;strokeColor=#b85450;fillColor=#f8cecc;align=left;verticalAlign=middle;spacingLeft=4;spacingRight=4;overflow=hidden;points=[[0,0.5],[1,0.5]];portConstraint=eastwest;rotatable=0;whiteSpace=wrap;html=1;fontColor=#000000;" parent="JUMyYvWln3PgIU_vPIIk-1" vertex="1">
                    <mxGeometry y="420" width="240" height="30" as="geometry"/>
                </mxCell>
                <mxCell id="JUMyYvWln3PgIU_vPIIk-23" value="movie_artist" style="text;strokeColor=#b85450;fillColor=#f8cecc;align=left;verticalAlign=middle;spacingLeft=4;spacingRight=4;overflow=hidden;points=[[0,0.5],[1,0.5]];portConstraint=eastwest;rotatable=0;whiteSpace=wrap;html=1;fontColor=#000000;" parent="JUMyYvWln3PgIU_vPIIk-1" vertex="1">
                    <mxGeometry y="450" width="240" height="30" as="geometry"/>
                </mxCell>
                <mxCell id="JUMyYvWln3PgIU_vPIIk-22" value="montage" style="text;strokeColor=#b85450;fillColor=#f8cecc;align=left;verticalAlign=middle;spacingLeft=4;spacingRight=4;overflow=hidden;points=[[0,0.5],[1,0.5]];portConstraint=eastwest;rotatable=0;whiteSpace=wrap;html=1;fontColor=#000000;" parent="JUMyYvWln3PgIU_vPIIk-1" vertex="1">
                    <mxGeometry y="480" width="240" height="30" as="geometry"/>
                </mxCell>
                <mxCell id="JUMyYvWln3PgIU_vPIIk-21" value="budget VARCHAR" style="text;strokeColor=#82b366;fillColor=#d5e8d4;align=left;verticalAlign=middle;spacingLeft=4;spacingRight=4;overflow=hidden;points=[[0,0.5],[1,0.5]];portConstraint=eastwest;rotatable=0;whiteSpace=wrap;html=1;fontColor=#000000;" parent="JUMyYvWln3PgIU_vPIIk-1" vertex="1">
                    <mxGeometry y="510" width="240" height="30" as="geometry"/>
                </mxCell>
                <mxCell id="JUMyYvWln3PgIU_vPIIk-20" value="marketing VARCHAR" style="text;strokeColor=#82b366;fillColor=#d5e8d4;align=left;verticalAlign=middle;spacingLeft=4;spacingRight=4;overflow=hidden;points=[[0,0.5],[1,0.5]];portConstraint=eastwest;rotatable=0;whiteSpace=wrap;html=1;fontColor=#000000;" parent="JUMyYvWln3PgIU_vPIIk-1" vertex="1">
                    <mxGeometry y="540" width="240" height="30" as="geometry"/>
                </mxCell>
                <mxCell id="JUMyYvWln3PgIU_vPIIk-19" value="&lt;div&gt;box_office_usa&amp;nbsp;&lt;/div&gt;VARCHAR" style="text;strokeColor=#82b366;fillColor=#d5e8d4;align=left;verticalAlign=middle;spacingLeft=4;spacingRight=4;overflow=hidden;points=[[0,0.5],[1,0.5]];portConstraint=eastwest;rotatable=0;whiteSpace=wrap;html=1;fontColor=#000000;" parent="JUMyYvWln3PgIU_vPIIk-1" vertex="1">
                    <mxGeometry y="570" width="240" height="30" as="geometry"/>
                </mxCell>
                <mxCell id="JUMyYvWln3PgIU_vPIIk-18" value="&lt;div&gt;box_office_world&amp;nbsp;&lt;/div&gt;VARCHAR" style="text;strokeColor=#82b366;fillColor=#d5e8d4;align=left;verticalAlign=middle;spacingLeft=4;spacingRight=4;overflow=hidden;points=[[0,0.5],[1,0.5]];portConstraint=eastwest;rotatable=0;whiteSpace=wrap;html=1;fontColor=#000000;" parent="JUMyYvWln3PgIU_vPIIk-1" vertex="1">
                    <mxGeometry y="600" width="240" height="30" as="geometry"/>
                </mxCell>
                <mxCell id="JUMyYvWln3PgIU_vPIIk-13" value="audience VARCHAR" style="text;strokeColor=#82b366;fillColor=#d5e8d4;align=left;verticalAlign=middle;spacingLeft=4;spacingRight=4;overflow=hidden;points=[[0,0.5],[1,0.5]];portConstraint=eastwest;rotatable=0;whiteSpace=wrap;html=1;fontColor=#000000;" parent="JUMyYvWln3PgIU_vPIIk-1" vertex="1">
                    <mxGeometry y="630" width="240" height="30" as="geometry"/>
                </mxCell>
                <mxCell id="JUMyYvWln3PgIU_vPIIk-4" value="premiere_russia TIME" style="text;strokeColor=#996185;fillColor=#e6d0de;align=left;verticalAlign=middle;spacingLeft=4;spacingRight=4;overflow=hidden;points=[[0,0.5],[1,0.5]];portConstraint=eastwest;rotatable=0;whiteSpace=wrap;html=1;gradientColor=#d5739d;fontColor=#000000;" parent="JUMyYvWln3PgIU_vPIIk-1" vertex="1">
                    <mxGeometry y="660" width="240" height="30" as="geometry"/>
                </mxCell>
                <mxCell id="JUMyYvWln3PgIU_vPIIk-26" value="premiere_world TIME" style="text;strokeColor=#996185;fillColor=#e6d0de;align=left;verticalAlign=middle;spacingLeft=4;spacingRight=4;overflow=hidden;points=[[0,0.5],[1,0.5]];portConstraint=eastwest;rotatable=0;whiteSpace=wrap;html=1;gradientColor=#d5739d;fontColor=#000000;" parent="JUMyYvWln3PgIU_vPIIk-1" vertex="1">
                    <mxGeometry y="690" width="240" height="30" as="geometry"/>
                </mxCell>
                <mxCell id="JUMyYvWln3PgIU_vPIIk-30" value="dvd_release TIME" style="text;strokeColor=#996185;fillColor=#e6d0de;align=left;verticalAlign=middle;spacingLeft=4;spacingRight=4;overflow=hidden;points=[[0,0.5],[1,0.5]];portConstraint=eastwest;rotatable=0;whiteSpace=wrap;html=1;gradientColor=#d5739d;fontColor=#000000;" parent="JUMyYvWln3PgIU_vPIIk-1" vertex="1">
                    <mxGeometry y="720" width="240" height="30" as="geometry"/>
                </mxCell>
                <mxCell id="JUMyYvWln3PgIU_vPIIk-29" value="age VARCHAR" style="text;strokeColor=#82b366;fillColor=#d5e8d4;align=left;verticalAlign=middle;spacingLeft=4;spacingRight=4;overflow=hidden;points=[[0,0.5],[1,0.5]];portConstraint=eastwest;rotatable=0;whiteSpace=wrap;html=1;fontColor=#000000;" parent="JUMyYvWln3PgIU_vPIIk-1" vertex="1">
                    <mxGeometry y="750" width="240" height="30" as="geometry"/>
                </mxCell>
                <mxCell id="JUMyYvWln3PgIU_vPIIk-28" value="rating_mpaa VARCHAR" style="text;strokeColor=#82b366;fillColor=#d5e8d4;align=left;verticalAlign=middle;spacingLeft=4;spacingRight=4;overflow=hidden;points=[[0,0.5],[1,0.5]];portConstraint=eastwest;rotatable=0;whiteSpace=wrap;html=1;fontColor=#000000;" parent="JUMyYvWln3PgIU_vPIIk-1" vertex="1">
                    <mxGeometry y="780" width="240" height="30" as="geometry"/>
                </mxCell>
                <mxCell id="JUMyYvWln3PgIU_vPIIk-27" value="duration TIME" style="text;strokeColor=#996185;fillColor=#e6d0de;align=left;verticalAlign=middle;spacingLeft=4;spacingRight=4;overflow=hidden;points=[[0,0.5],[1,0.5]];portConstraint=eastwest;rotatable=0;whiteSpace=wrap;html=1;gradientColor=#d5739d;fontColor=#000000;" parent="JUMyYvWln3PgIU_vPIIk-1" vertex="1">
                    <mxGeometry y="810" width="240" height="30" as="geometry"/>
                </mxCell>
                <mxCell id="JUMyYvWln3PgIU_vPIIk-5" value="person" style="swimlane;fontStyle=0;childLayout=stackLayout;horizontal=1;startSize=30;horizontalStack=0;resizeParent=1;resizeParentMax=0;resizeLast=0;collapsible=1;marginBottom=0;whiteSpace=wrap;html=1;" parent="1" vertex="1">
                    <mxGeometry x="420" y="530" width="150" height="120" as="geometry"/>
                </mxCell>
                <mxCell id="JUMyYvWln3PgIU_vPIIk-6" value="person_id SERIAL" style="text;strokeColor=#000000;fillColor=#f8cecc;align=left;verticalAlign=middle;spacingLeft=4;spacingRight=4;overflow=hidden;points=[[0,0.5],[1,0.5]];portConstraint=eastwest;rotatable=0;whiteSpace=wrap;html=1;fontColor=#000000;" parent="JUMyYvWln3PgIU_vPIIk-5" vertex="1">
                    <mxGeometry y="30" width="150" height="30" as="geometry"/>
                </mxCell>
                <mxCell id="JUMyYvWln3PgIU_vPIIk-7" value="first_name VARCHAR" style="text;strokeColor=#36393d;fillColor=#eeeeee;align=left;verticalAlign=middle;spacingLeft=4;spacingRight=4;overflow=hidden;points=[[0,0.5],[1,0.5]];portConstraint=eastwest;rotatable=0;whiteSpace=wrap;html=1;fontColor=#000000;" parent="JUMyYvWln3PgIU_vPIIk-5" vertex="1">
                    <mxGeometry y="60" width="150" height="30" as="geometry"/>
                </mxCell>
                <mxCell id="JUMyYvWln3PgIU_vPIIk-8" value="last_name VARCHAR" style="text;strokeColor=#36393d;fillColor=#eeeeee;align=left;verticalAlign=middle;spacingLeft=4;spacingRight=4;overflow=hidden;points=[[0,0.5],[1,0.5]];portConstraint=eastwest;rotatable=0;whiteSpace=wrap;html=1;fontColor=#000000;" parent="JUMyYvWln3PgIU_vPIIk-5" vertex="1">
                    <mxGeometry y="90" width="150" height="30" as="geometry"/>
                </mxCell>
                <mxCell id="JUMyYvWln3PgIU_vPIIk-49" style="edgeStyle=orthogonalEdgeStyle;rounded=0;orthogonalLoop=1;jettySize=auto;html=1;entryX=1;entryY=0.5;entryDx=0;entryDy=0;exitX=0;exitY=0.5;exitDx=0;exitDy=0;" parent="1" source="JUMyYvWln3PgIU_vPIIk-32" target="JUMyYvWln3PgIU_vPIIk-70" edge="1">
                    <mxGeometry relative="1" as="geometry"/>
                </mxCell>
                <mxCell id="JUMyYvWln3PgIU_vPIIk-31" value="actor" style="swimlane;fontStyle=0;childLayout=stackLayout;horizontal=1;startSize=30;horizontalStack=0;resizeParent=1;resizeParentMax=0;resizeLast=0;collapsible=1;marginBottom=0;whiteSpace=wrap;html=1;" parent="1" vertex="1">
                    <mxGeometry x="530" y="160" width="150" height="120" as="geometry"/>
                </mxCell>
                <mxCell id="JUMyYvWln3PgIU_vPIIk-32" value="actor_id SERIAL" style="text;strokeColor=#9673a6;fillColor=#e1d5e7;align=left;verticalAlign=middle;spacingLeft=4;spacingRight=4;overflow=hidden;points=[[0,0.5],[1,0.5]];portConstraint=eastwest;rotatable=0;whiteSpace=wrap;html=1;fontColor=#000000;" parent="JUMyYvWln3PgIU_vPIIk-31" vertex="1">
                    <mxGeometry y="30" width="150" height="30" as="geometry"/>
                </mxCell>
                <mxCell id="JUMyYvWln3PgIU_vPIIk-33" value="first_name VARCHAR" style="text;strokeColor=#36393d;fillColor=#eeeeee;align=left;verticalAlign=middle;spacingLeft=4;spacingRight=4;overflow=hidden;points=[[0,0.5],[1,0.5]];portConstraint=eastwest;rotatable=0;whiteSpace=wrap;html=1;fontColor=#000000;" parent="JUMyYvWln3PgIU_vPIIk-31" vertex="1">
                    <mxGeometry y="60" width="150" height="30" as="geometry"/>
                </mxCell>
                <mxCell id="JUMyYvWln3PgIU_vPIIk-34" value="last_name VARCHAR" style="text;strokeColor=#36393d;fillColor=#eeeeee;align=left;verticalAlign=middle;spacingLeft=4;spacingRight=4;overflow=hidden;points=[[0,0.5],[1,0.5]];portConstraint=eastwest;rotatable=0;whiteSpace=wrap;html=1;fontColor=#000000;" parent="JUMyYvWln3PgIU_vPIIk-31" vertex="1">
                    <mxGeometry y="90" width="150" height="30" as="geometry"/>
                </mxCell>
                <mxCell id="JUMyYvWln3PgIU_vPIIk-53" style="edgeStyle=orthogonalEdgeStyle;rounded=0;orthogonalLoop=1;jettySize=auto;html=1;entryX=0;entryY=0.5;entryDx=0;entryDy=0;exitX=1;exitY=0.5;exitDx=0;exitDy=0;strokeColor=#000000;fontColor=#000000;" parent="1" source="JUMyYvWln3PgIU_vPIIk-36" target="JUMyYvWln3PgIU_vPIIk-11" edge="1">
                    <mxGeometry relative="1" as="geometry"/>
                </mxCell>
                <mxCell id="JUMyYvWln3PgIU_vPIIk-35" value="country" style="swimlane;fontStyle=0;childLayout=stackLayout;horizontal=1;startSize=30;horizontalStack=0;resizeParent=1;resizeParentMax=0;resizeLast=0;collapsible=1;marginBottom=0;whiteSpace=wrap;html=1;" parent="1" vertex="1">
                    <mxGeometry x="-200" y="320" width="150" height="90" as="geometry"/>
                </mxCell>
                <mxCell id="JUMyYvWln3PgIU_vPIIk-36" value="country_id SERIAL" style="text;strokeColor=#10739e;fillColor=#b1ddf0;align=left;verticalAlign=middle;spacingLeft=4;spacingRight=4;overflow=hidden;points=[[0,0.5],[1,0.5]];portConstraint=eastwest;rotatable=0;whiteSpace=wrap;html=1;fontColor=#000000;" parent="JUMyYvWln3PgIU_vPIIk-35" vertex="1">
                    <mxGeometry y="30" width="150" height="30" as="geometry"/>
                </mxCell>
                <mxCell id="JUMyYvWln3PgIU_vPIIk-38" value="country VARCHAR" style="text;strokeColor=#36393d;fillColor=#eeeeee;align=left;verticalAlign=middle;spacingLeft=4;spacingRight=4;overflow=hidden;points=[[0,0.5],[1,0.5]];portConstraint=eastwest;rotatable=0;whiteSpace=wrap;html=1;fontColor=#000000;" parent="JUMyYvWln3PgIU_vPIIk-35" vertex="1">
                    <mxGeometry y="60" width="150" height="30" as="geometry"/>
                </mxCell>
                <mxCell id="JUMyYvWln3PgIU_vPIIk-67" style="edgeStyle=orthogonalEdgeStyle;rounded=0;orthogonalLoop=1;jettySize=auto;html=1;exitX=1;exitY=0.5;exitDx=0;exitDy=0;strokeColor=#000000;fontColor=#000000;entryX=1;entryY=0.5;entryDx=0;entryDy=0;" parent="JUMyYvWln3PgIU_vPIIk-35" source="JUMyYvWln3PgIU_vPIIk-35" target="JUMyYvWln3PgIU_vPIIk-36" edge="1">
                    <mxGeometry relative="1" as="geometry">
                        <mxPoint x="220" y="220" as="targetPoint"/>
                    </mxGeometry>
                </mxCell>
                <mxCell id="JUMyYvWln3PgIU_vPIIk-54" style="edgeStyle=orthogonalEdgeStyle;rounded=0;orthogonalLoop=1;jettySize=auto;html=1;entryX=0;entryY=0.5;entryDx=0;entryDy=0;" parent="1" source="JUMyYvWln3PgIU_vPIIk-39" target="JUMyYvWln3PgIU_vPIIk-10" edge="1">
                    <mxGeometry relative="1" as="geometry"/>
                </mxCell>
                <mxCell id="4" style="edgeStyle=none;html=1;exitX=1;exitY=0.5;exitDx=0;exitDy=0;strokeColor=#000000;fontColor=#000000;entryX=0;entryY=0.5;entryDx=0;entryDy=0;" parent="1" source="JUMyYvWln3PgIU_vPIIk-39" target="JUMyYvWln3PgIU_vPIIk-10" edge="1">
                    <mxGeometry relative="1" as="geometry">
                        <mxPoint y="265" as="targetPoint"/>
                        <Array as="points">
                            <mxPoint y="265"/>
                            <mxPoint y="305"/>
                        </Array>
                    </mxGeometry>
                </mxCell>
                <mxCell id="JUMyYvWln3PgIU_vPIIk-39" value="language" style="swimlane;fontStyle=0;childLayout=stackLayout;horizontal=1;startSize=30;horizontalStack=0;resizeParent=1;resizeParentMax=0;resizeLast=0;collapsible=1;marginBottom=0;whiteSpace=wrap;html=1;" parent="1" vertex="1">
                    <mxGeometry x="-200" y="220" width="150" height="90" as="geometry"/>
                </mxCell>
                <mxCell id="JUMyYvWln3PgIU_vPIIk-40" value="lang_id SERIAL" style="text;strokeColor=#d6b656;fillColor=#fff2cc;align=left;verticalAlign=middle;spacingLeft=4;spacingRight=4;overflow=hidden;points=[[0,0.5],[1,0.5]];portConstraint=eastwest;rotatable=0;whiteSpace=wrap;html=1;fontColor=#000000;" parent="JUMyYvWln3PgIU_vPIIk-39" vertex="1">
                    <mxGeometry y="30" width="150" height="30" as="geometry"/>
                </mxCell>
                <mxCell id="JUMyYvWln3PgIU_vPIIk-41" value="language VARCHAR" style="text;strokeColor=#36393d;fillColor=#eeeeee;align=left;verticalAlign=middle;spacingLeft=4;spacingRight=4;overflow=hidden;points=[[0,0.5],[1,0.5]];portConstraint=eastwest;rotatable=0;whiteSpace=wrap;html=1;fontColor=#000000;" parent="JUMyYvWln3PgIU_vPIIk-39" vertex="1">
                    <mxGeometry y="60" width="150" height="30" as="geometry"/>
                </mxCell>
                <mxCell id="2" style="edgeStyle=none;html=1;exitX=1;exitY=0.5;exitDx=0;exitDy=0;strokeColor=#000000;fontColor=#000000;" parent="JUMyYvWln3PgIU_vPIIk-39" source="JUMyYvWln3PgIU_vPIIk-39" target="JUMyYvWln3PgIU_vPIIk-40" edge="1">
                    <mxGeometry relative="1" as="geometry"/>
                </mxCell>
                <mxCell id="JUMyYvWln3PgIU_vPIIk-50" style="edgeStyle=orthogonalEdgeStyle;rounded=0;orthogonalLoop=1;jettySize=auto;html=1;exitX=0;exitY=0.5;exitDx=0;exitDy=0;entryX=1;entryY=0.5;entryDx=0;entryDy=0;" parent="1" source="JUMyYvWln3PgIU_vPIIk-32" target="JUMyYvWln3PgIU_vPIIk-69" edge="1">
                    <mxGeometry relative="1" as="geometry"/>
                </mxCell>
                <mxCell id="JUMyYvWln3PgIU_vPIIk-51" style="edgeStyle=orthogonalEdgeStyle;rounded=0;orthogonalLoop=1;jettySize=auto;html=1;exitX=1;exitY=0.5;exitDx=0;exitDy=0;entryX=0;entryY=0.5;entryDx=0;entryDy=0;" parent="1" source="JUMyYvWln3PgIU_vPIIk-47" target="JUMyYvWln3PgIU_vPIIk-71" edge="1">
                    <mxGeometry relative="1" as="geometry"/>
                </mxCell>
                <mxCell id="JUMyYvWln3PgIU_vPIIk-52" style="edgeStyle=orthogonalEdgeStyle;rounded=0;orthogonalLoop=1;jettySize=auto;html=1;exitX=1;exitY=0.5;exitDx=0;exitDy=0;entryX=0;entryY=0.5;entryDx=0;entryDy=0;strokeColor=#000000;" parent="1" source="JUMyYvWln3PgIU_vPIIk-70" target="JUMyYvWln3PgIU_vPIIk-32" edge="1">
                    <mxGeometry relative="1" as="geometry"/>
                </mxCell>
                <mxCell id="JUMyYvWln3PgIU_vPIIk-55" style="edgeStyle=orthogonalEdgeStyle;rounded=0;orthogonalLoop=1;jettySize=auto;html=1;exitX=1;exitY=0.5;exitDx=0;exitDy=0;strokeColor=#000000;" parent="1" source="JUMyYvWln3PgIU_vPIIk-40" target="JUMyYvWln3PgIU_vPIIk-3" edge="1">
                    <mxGeometry relative="1" as="geometry">
                        <Array as="points">
                            <mxPoint x="-30" y="265"/>
                            <mxPoint x="-30" y="335"/>
                        </Array>
                    </mxGeometry>
                </mxCell>
                <mxCell id="JUMyYvWln3PgIU_vPIIk-56" value="genre" style="swimlane;fontStyle=0;childLayout=stackLayout;horizontal=1;startSize=30;horizontalStack=0;resizeParent=1;resizeParentMax=0;resizeLast=0;collapsible=1;marginBottom=0;whiteSpace=wrap;html=1;" parent="1" vertex="1">
                    <mxGeometry x="-200" y="420" width="150" height="90" as="geometry"/>
                </mxCell>
                <mxCell id="JUMyYvWln3PgIU_vPIIk-57" value="genre_id SERIAL" style="text;strokeColor=#000000;fillColor=#ffe6cc;align=left;verticalAlign=middle;spacingLeft=4;spacingRight=4;overflow=hidden;points=[[0,0.5],[1,0.5]];portConstraint=eastwest;rotatable=0;whiteSpace=wrap;html=1;fontColor=#000000;" parent="JUMyYvWln3PgIU_vPIIk-56" vertex="1">
                    <mxGeometry y="30" width="150" height="30" as="geometry"/>
                </mxCell>
                <mxCell id="JUMyYvWln3PgIU_vPIIk-58" value="genre VARCHAR" style="text;strokeColor=#36393d;fillColor=#eeeeee;align=left;verticalAlign=middle;spacingLeft=4;spacingRight=4;overflow=hidden;points=[[0,0.5],[1,0.5]];portConstraint=eastwest;rotatable=0;whiteSpace=wrap;html=1;fontColor=#000000;" parent="JUMyYvWln3PgIU_vPIIk-56" vertex="1">
                    <mxGeometry y="60" width="150" height="30" as="geometry"/>
                </mxCell>
                <mxCell id="JUMyYvWln3PgIU_vPIIk-59" style="edgeStyle=orthogonalEdgeStyle;rounded=0;orthogonalLoop=1;jettySize=auto;html=1;exitX=1;exitY=0.5;exitDx=0;exitDy=0;entryX=0;entryY=0.5;entryDx=0;entryDy=0;strokeColor=#000000;fontColor=#000000;" parent="1" source="JUMyYvWln3PgIU_vPIIk-57" target="JUMyYvWln3PgIU_vPIIk-12" edge="1">
                    <mxGeometry relative="1" as="geometry"/>
                </mxCell>
                <mxCell id="JUMyYvWln3PgIU_vPIIk-60" style="edgeStyle=orthogonalEdgeStyle;rounded=0;orthogonalLoop=1;jettySize=auto;html=1;exitX=0;exitY=0.5;exitDx=0;exitDy=0;entryX=1.007;entryY=0.767;entryDx=0;entryDy=0;entryPerimeter=0;strokeColor=#000000;fontColor=#000000;" parent="1" source="JUMyYvWln3PgIU_vPIIk-6" target="JUMyYvWln3PgIU_vPIIk-14" edge="1">
                    <mxGeometry relative="1" as="geometry"/>
                </mxCell>
                <mxCell id="JUMyYvWln3PgIU_vPIIk-61" style="edgeStyle=orthogonalEdgeStyle;rounded=0;orthogonalLoop=1;jettySize=auto;html=1;exitX=0;exitY=0.5;exitDx=0;exitDy=0;strokeColor=#000000;fontColor=#000000;" parent="1" source="JUMyYvWln3PgIU_vPIIk-6" target="JUMyYvWln3PgIU_vPIIk-16" edge="1">
                    <mxGeometry relative="1" as="geometry"/>
                </mxCell>
                <mxCell id="JUMyYvWln3PgIU_vPIIk-62" style="edgeStyle=orthogonalEdgeStyle;rounded=0;orthogonalLoop=1;jettySize=auto;html=1;exitX=0;exitY=0.5;exitDx=0;exitDy=0;entryX=1;entryY=0.5;entryDx=0;entryDy=0;strokeColor=#000000;fontColor=#000000;" parent="1" source="JUMyYvWln3PgIU_vPIIk-6" target="JUMyYvWln3PgIU_vPIIk-17" edge="1">
                    <mxGeometry relative="1" as="geometry"/>
                </mxCell>
                <mxCell id="JUMyYvWln3PgIU_vPIIk-63" style="edgeStyle=orthogonalEdgeStyle;rounded=0;orthogonalLoop=1;jettySize=auto;html=1;exitX=0;exitY=0.5;exitDx=0;exitDy=0;entryX=1;entryY=0.5;entryDx=0;entryDy=0;strokeColor=#000000;fontColor=#000000;" parent="1" source="JUMyYvWln3PgIU_vPIIk-6" target="JUMyYvWln3PgIU_vPIIk-25" edge="1">
                    <mxGeometry relative="1" as="geometry"/>
                </mxCell>
                <mxCell id="JUMyYvWln3PgIU_vPIIk-64" style="edgeStyle=orthogonalEdgeStyle;rounded=0;orthogonalLoop=1;jettySize=auto;html=1;exitX=0;exitY=0.5;exitDx=0;exitDy=0;entryX=1;entryY=0.5;entryDx=0;entryDy=0;strokeColor=#000000;fontColor=#000000;" parent="1" source="JUMyYvWln3PgIU_vPIIk-6" target="JUMyYvWln3PgIU_vPIIk-24" edge="1">
                    <mxGeometry relative="1" as="geometry"/>
                </mxCell>
                <mxCell id="JUMyYvWln3PgIU_vPIIk-65" style="edgeStyle=orthogonalEdgeStyle;rounded=0;orthogonalLoop=1;jettySize=auto;html=1;exitX=0;exitY=0.5;exitDx=0;exitDy=0;strokeColor=#000000;fontColor=#000000;" parent="1" source="JUMyYvWln3PgIU_vPIIk-6" target="JUMyYvWln3PgIU_vPIIk-23" edge="1">
                    <mxGeometry relative="1" as="geometry"/>
                </mxCell>
                <mxCell id="JUMyYvWln3PgIU_vPIIk-66" style="edgeStyle=orthogonalEdgeStyle;rounded=0;orthogonalLoop=1;jettySize=auto;html=1;exitX=0;exitY=0.5;exitDx=0;exitDy=0;entryX=1;entryY=0.5;entryDx=0;entryDy=0;strokeColor=#000000;fontColor=#000000;" parent="1" source="JUMyYvWln3PgIU_vPIIk-6" target="JUMyYvWln3PgIU_vPIIk-22" edge="1">
                    <mxGeometry relative="1" as="geometry"/>
                </mxCell>
                <mxCell id="JUMyYvWln3PgIU_vPIIk-69" value="actor_film" style="swimlane;fontStyle=0;childLayout=stackLayout;horizontal=1;startSize=30;horizontalStack=0;resizeParent=1;resizeParentMax=0;resizeLast=0;collapsible=1;marginBottom=0;whiteSpace=wrap;html=1;" parent="1" vertex="1">
                    <mxGeometry x="340" y="150" width="140" height="90" as="geometry"/>
                </mxCell>
                <mxCell id="JUMyYvWln3PgIU_vPIIk-70" value="actor_id SERIAL" style="text;strokeColor=#9673a6;fillColor=#e1d5e7;align=left;verticalAlign=middle;spacingLeft=4;spacingRight=4;overflow=hidden;points=[[0,0.5],[1,0.5]];portConstraint=eastwest;rotatable=0;whiteSpace=wrap;html=1;fontColor=#000000;" parent="JUMyYvWln3PgIU_vPIIk-69" vertex="1">
                    <mxGeometry y="30" width="140" height="30" as="geometry"/>
                </mxCell>
                <mxCell id="JUMyYvWln3PgIU_vPIIk-71" value="&lt;div&gt;film_id&lt;/div&gt;" style="text;strokeColor=#9673a6;fillColor=#e1d5e7;align=left;verticalAlign=middle;spacingLeft=4;spacingRight=4;overflow=hidden;points=[[0,0.5],[1,0.5]];portConstraint=eastwest;rotatable=0;whiteSpace=wrap;html=1;fontColor=#000000;" parent="JUMyYvWln3PgIU_vPIIk-69" vertex="1">
                    <mxGeometry y="60" width="140" height="30" as="geometry"/>
                </mxCell>
                <mxCell id="JUMyYvWln3PgIU_vPIIk-73" style="edgeStyle=orthogonalEdgeStyle;rounded=0;orthogonalLoop=1;jettySize=auto;html=1;exitX=0;exitY=0.5;exitDx=0;exitDy=0;entryX=1;entryY=0.5;entryDx=0;entryDy=0;strokeColor=#000000;" parent="1" source="JUMyYvWln3PgIU_vPIIk-71" target="JUMyYvWln3PgIU_vPIIk-47" edge="1">
                    <mxGeometry relative="1" as="geometry"/>
                </mxCell>
                <mxCell id="JUMyYvWln3PgIU_vPIIk-74" style="edgeStyle=orthogonalEdgeStyle;rounded=0;orthogonalLoop=1;jettySize=auto;html=1;exitX=1;exitY=0.5;exitDx=0;exitDy=0;entryX=0;entryY=0.5;entryDx=0;entryDy=0;" parent="1" source="JUMyYvWln3PgIU_vPIIk-48" target="JUMyYvWln3PgIU_vPIIk-71" edge="1">
                    <mxGeometry relative="1" as="geometry"/>
                </mxCell>
                <mxCell id="JUMyYvWln3PgIU_vPIIk-75" style="edgeStyle=orthogonalEdgeStyle;rounded=0;orthogonalLoop=1;jettySize=auto;html=1;exitX=0;exitY=0.5;exitDx=0;exitDy=0;entryX=1;entryY=0.5;entryDx=0;entryDy=0;strokeColor=#000000;" parent="1" source="JUMyYvWln3PgIU_vPIIk-71" target="JUMyYvWln3PgIU_vPIIk-48" edge="1">
                    <mxGeometry relative="1" as="geometry"/>
                </mxCell>
            </root>
        </mxGraphModel>
    </diagram>
</mxfile>